<svg xmlns="http://www.w3.org/2000/svg" viewBox="0 0 3000 2333" width="3000" height="2333"><g transform="translate(928.3333333333334 1793.3333333333335) rotate(0.0 376.6666666666667 148.33333333333326) scale(1.6669727700735608 1.6731053022398923)"><svg width="451.917" height="177.315" viewBox="0 0 451.917 177.315"><path d="M3 79.436 209.462 3l239.455 66.299-192.423 80.323z" fill="#fff"/><path d="M256.494 152.622a2.98 2.98 0 0 1-.8-.109L2.2 82.327a3 3 0 0 1-.241-5.705L208.42.186a2.998 2.998 0 0 1 1.842-.078l239.455 66.299a3 3 0 0 1 .356 5.66L257.65 152.39a3 3 0 0 1-1.156.231zM12.754 79.024l243.541 67.43 183.456-76.58L209.595 6.15z" fill="#0b122d"/><path d="M3 79.436v24.693l253.494 70.186v-24.693z" fill="#bfdbfb"/><path d="M256.494 177.315a2.99 2.99 0 0 1-.8-.109L2.2 107.02a2.999 2.999 0 0 1-2.2-2.891V79.436a3.001 3.001 0 0 1 3.801-2.891l253.494 70.186a3 3 0 0 1 2.2 2.891v24.693a3.001 3.001 0 0 1-3 3zM6 101.847l247.494 68.525v-18.468L6 83.379z" fill="#0b122d"/><path d="M448.917 69.299v24.694l-192.423 80.322v-24.693z" fill="#bfdbfb"/><g fill="#0b122d"><path d="M256.494 177.315a3 3 0 0 1-3-3v-24.693c0-1.21.728-2.302 1.844-2.769L447.761 66.53a3.003 3.003 0 0 1 4.156 2.769v24.693c0 1.21-.728 2.302-1.844 2.769L257.65 177.084a3.004 3.004 0 0 1-1.156.231zm3-25.694v18.192l186.423-77.818V73.803z"/><path d="M303.359 160.511a22.51 22.51 0 0 1-5.163-.6 3 3 0 1 1 1.374-5.84c10.548 2.485 21.533-5.722 24.489-18.288 2.956-12.565-3.22-24.807-13.768-27.288-9.009-2.118-18.675 3.646-22.985 13.707a3 3 0 1 1-5.515-2.363c5.461-12.745 18.027-19.97 29.874-17.185 13.768 3.239 21.948 18.717 18.234 34.503-3.25 13.812-14.545 23.354-26.541 23.354zm55.631-23.407a22.51 22.51 0 0 1-5.163-.6 3 3 0 1 1 1.374-5.84c10.546 2.482 21.534-5.722 24.489-18.288 1.452-6.17.768-12.431-1.925-17.631-2.613-5.045-6.819-8.475-11.842-9.657-9.007-2.119-18.675 3.645-22.985 13.706a3 3 0 0 1-5.515-2.362c5.46-12.746 18.025-19.971 29.875-17.185 6.755 1.589 12.365 6.113 15.796 12.738 3.352 6.471 4.217 14.2 2.438 21.764-3.25 13.812-14.545 23.354-26.541 23.354zm45.182-19.021a22.51 22.51 0 0 1-5.163-.6 3 3 0 1 1 1.374-5.84c10.547 2.483 21.534-5.722 24.489-18.288 1.452-6.17.768-12.432-1.925-17.631-2.613-5.045-6.819-8.475-11.842-9.657-9.009-2.118-18.675 3.646-22.986 13.707a3 3 0 1 1-5.515-2.363c5.46-12.745 18.023-19.971 29.875-17.185 6.755 1.589 12.365 6.113 15.796 12.738 3.352 6.471 4.217 14.201 2.438 21.765-3.25 13.812-14.545 23.353-26.541 23.354zM222.32 110.97a3.001 3.001 0 0 1-1.157-5.769l122.568-51.164a3 3 0 0 1 2.311 5.537l-122.568 51.164c-.378.158-.77.232-1.154.232zm35.224-38.67a3.001 3.001 0 0 1-1.157-5.769l52.93-22.094a3 3 0 0 1 2.311 5.537l-52.93 22.094c-.378.158-.77.232-1.154.232z"/></g></svg></g><g transform="translate(161.66666666666669 190.0) rotate(0.0 861.6666666666666 898.3333333333334) scale(1.6703741218016133 1.6715915039733638)"><svg width="1031.705" height="1074.824" viewBox="0 0 1031.705 1074.824"><path d="M825.319 383.362c-32.153-24.294-49.136-48.096-57.471-66.174-10.254-22.243-43.936 10.968-33.394 44.445 7.46 23.688 18.481 40.403 22.682 52.167-10.189 24.482 28.971 56.354 57.731 45.078" fill="#ffcebd"/><path d="M802.125 464.228c-14.554 0-28.872-7.702-37.78-16.797-10.375-10.592-14.21-23.079-10.416-33.656-1.568-4.107-3.963-8.913-6.703-14.409-4.88-9.79-10.954-21.974-15.633-36.834-3.488-11.075-2.718-23.25 2.167-34.283 4.273-9.651 11.388-17.369 18.568-20.142 7.781-3.005 14.602-.081 18.245 7.823 7.198 15.614 22.852 39.572 56.555 65.037a3 3 0 1 1-3.617 4.787c-34.695-26.215-50.901-51.074-58.387-67.312-2.296-4.982-5.875-6.575-10.634-4.737-11.482 4.434-23.753 26.134-17.174 47.024 4.538 14.41 10.494 26.359 15.28 35.96 3.059 6.136 5.7 11.435 7.366 16.1a2.998 2.998 0 0 1-.056 2.162c-3.543 8.513-.281 19.085 8.725 28.281 14.854 15.166 33.812 17.292 45.141 12.852a3 3 0 1 1 2.19 5.586c-4.523 1.773-9.193 2.558-13.837 2.558z" fill="#0b122d"/><path d="M857.454 972.479c-128.691 6.215-185.834-128.673-224.903-233.123-18.463-44.96-36.826-106.062-67.859-124.477-101.903-57.543-21.931-190.114 81.845-126.193 53.42 39.843 124.917 193.739 125.633 195.862 14.493 32.729 67.213 167.968 87.28 135.661 54.974-88.507-21.769-282.81-146.186-322.789-93.159-31.959-47.85-171.634 46.44-142.628 175.547 49.375 304.677 298.744 260.147 470.155-19.679 82.794-78.397 145.073-162.398 147.531z" fill="#ffcebd"/><path d="M849.069 975.683c-27.65 0-53.516-6.61-77.013-19.698-22.64-12.61-43.851-31.701-63.042-56.743-35.797-46.708-59.688-106.478-79.272-158.835-3.271-7.96-6.506-16.352-9.931-25.235-15.021-38.957-32.045-83.112-56.649-97.712-30.97-17.488-48.711-44.363-48.62-73.704.084-26.959 15.015-51.986 38.965-65.313 27.417-15.257 61.9-12.455 94.604 7.69.076.046.149.096.22.149 53.028 39.55 123.425 189.938 126.575 197.056l.008-.003c1.744 3.938 4.06 9.405 6.742 15.734 8.642 20.394 21.702 51.212 35.087 77.012 20.387 39.297 30.681 45.728 35.003 46.063 1.213.094 3.075-.167 5.156-3.517 23.387-37.653 23.551-97.696.439-160.614-28.555-77.732-84.113-138.173-144.995-157.736-22.485-7.713-38.769-22.066-47.146-41.526-7.427-17.251-8.086-37.3-1.856-56.452 6.229-19.15 18.553-34.967 34.704-44.537 18.222-10.798 39.847-12.818 62.539-5.836 42.743 12.021 83.851 35.862 122.111 70.84 35.432 32.393 67.331 73.858 92.248 119.914 51.329 94.874 69.202 200.677 47.81 283.022-10.105 42.517-30.138 78.954-57.917 105.313-29.389 27.887-66.48 43.261-107.266 44.461-2.851.137-5.689.206-8.503.206zM591.71 474.733c-12.561 0-24.53 2.966-35.286 8.951-22.056 12.273-35.805 35.298-35.882 60.09-.086 27.505 16.118 51.83 45.625 68.493 26.448 15.693 43.87 60.879 59.242 100.746 3.413 8.853 6.637 17.214 9.917 25.203 19.467 52.041 43.154 111.323 78.449 157.376 38.16 49.791 82.415 74.095 135.051 74.097 2.805 0 5.629-.069 8.483-.207l.057-.002c77.673-2.273 138.815-57.92 159.567-145.227 21.035-80.974 3.36-185.146-47.265-278.719-24.602-45.473-56.076-86.395-91.019-118.34-37.562-34.34-77.854-57.728-119.757-69.514-46.699-14.362-79.289 14.026-89.843 46.474-10.559 32.464-.922 74.61 45.188 90.428 62.544 20.097 119.558 81.934 148.735 161.361 23.745 64.639 23.38 126.638-.974 165.849-3.509 5.649-7.767 6.567-10.717 6.333-20.468-1.589-49.523-66.242-75.15-126.717-2.672-6.305-4.979-11.751-6.704-15.645a3.31 3.31 0 0 1-.1-.256c-.757-1.888-19.027-41.139-43.297-84.113-31.661-56.06-59.729-94.168-81.18-110.224-17.757-10.914-35.999-16.438-53.141-16.438z" fill="#0b122d"/><path d="M680.972 486.379c79.598 55.322 110.116 183.258 145.034 250.836-35.099 51.132-145.125 82.714-222.75 67.684 0 0-13.23-102.294-37.292-140.643" fill="#fdf151"/><path d="M645.136 811.665c-14.916 0-29.234-1.261-42.452-3.82a3 3 0 0 1-2.405-2.561c-.132-1.017-13.422-102.083-36.858-139.434a3 3 0 0 1 5.082-3.19c22.475 35.818 35.335 124.293 37.437 139.689 36.568 6.628 81.528 3.246 123.779-9.357 42.544-12.69 76.22-33.048 92.789-56.022-9.139-17.969-18.049-40.092-27.466-63.473-25.961-64.46-58.271-144.684-115.784-184.656a2.998 2.998 0 0 1-.751-4.175 2.998 2.998 0 0 1 4.175-.751c58.984 40.995 91.666 122.14 117.926 187.341 9.648 23.955 18.761 46.581 28.061 64.582a2.998 2.998 0 0 1-.192 3.075c-16.941 24.68-52.312 46.487-97.043 59.83-28.616 8.536-58.49 12.921-86.299 12.922z" fill="#0b122d"/><path d="M632.984 679.77c-.433 59.586 9.097 105.662 16.816 128.886 0 0-31.194-1.728-46.545-3.757 0 0 9.199-107.085 29.73-125.129z" fill="#0b122d"/><path d="M649.801 811.656c-.056 0-.111-.001-.167-.004-1.278-.071-31.484-1.758-46.772-3.778a3 3 0 0 1-2.596-3.231c.379-4.421 9.545-108.5 30.738-127.126a2.999 2.999 0 0 1 4.98 2.275c-.513 70.632 12.624 115.767 16.663 127.918a3.001 3.001 0 0 1-2.846 3.946zm-43.3-9.378c12.005 1.397 30.714 2.616 39.12 3.127-4.858-15.955-15.097-56.577-15.629-116.71-12.744 23.136-20.907 85.624-23.49 113.583z" fill="#0b122d"/><path d="M641.656 636.91c-22.117 94.792-35.584 254.198-21.188 317.948-63.164 47.847-302.301 58.609-413.35 17.48 0 0-85.468-504.652-12.044-534.398 56.293-22.806 143.678-35.252 203.813-32.813 44.439 1.802 120.034 21.401 120.034 21.401 55.46 7.927 117.431 29.452 162.051 59.851" fill="#fdf151"/><path d="M392.388 1000.82c-74.051 0-141.777-9.173-186.312-25.667a3 3 0 0 1-1.916-2.312c-.214-1.263-21.525-127.759-33.585-256.265-7.09-75.547-9.644-137.023-7.592-182.72 2.651-59.044 12.78-91.328 30.964-98.694 53.756-21.777 140-35.667 205.061-33.031 43.25 1.754 116.515 20.428 120.501 21.452 59.18 8.484 120.158 31.026 163.151 60.318a3 3 0 0 1-3.377 4.959c-42.312-28.828-102.419-51.019-160.786-59.361a3.09 3.09 0 0 1-.329-.066c-.753-.195-75.798-19.539-119.403-21.307-63.275-2.562-150.361 11.447-202.565 32.596-10.7 4.335-24.108 24.056-27.223 93.392-2.041 45.416.506 106.607 7.569 181.873 11.274 120.152 30.655 238.565 33.243 254.137 51.757 18.719 134.471 27.625 221.832 23.845 85.024-3.68 155.705-19.1 185.501-40.372-6.418-30.38-7.398-82.176-2.744-146.288 4.401-60.619 13.506-124.574 24.357-171.08a2.999 2.999 0 1 1 5.843 1.363c-10.784 46.218-19.836 109.826-24.216 170.151-4.645 63.973-3.539 117.354 3.032 146.456a3 3 0 0 1-1.115 3.052c-30.221 22.892-101.399 38.859-190.4 42.711a915.099 915.099 0 0 1-39.491.858z" fill="#0b122d"/><path d="M306.161 890.519c-12.248 0-23.936-7.069-29.245-18.979-13.249-29.722-18.73-68.63-16.291-115.646 1.747-33.662 7.051-59.416 7.276-60.495a32 32 0 0 1 52.299-17.645l52.568 45.609c29.684-56.308 61.779-98.193 99.374-130.048a32 32 0 0 1 52.07 30.669c-10.106 50.702-14.035 91.266-11.941 124.77l55.016-10.527a32.001 32.001 0 0 1 34.635 45.743l-39.578 79.141c-7.905 15.807-27.127 22.212-42.934 14.308s-22.212-27.127-14.308-42.934l10.616-21.229-24.666 4.72c-17.153 3.282-33.766-7.792-37.338-24.885-4.54-21.729-6.494-45.572-5.828-72.337-12.235 19.748-24.035 42.079-35.651 67.354a32 32 0 0 1-50.047 10.808l-37.922-32.901c-.857 27.225 1.315 57.507 11.104 79.467 7.196 16.142-.057 35.061-16.199 42.257a31.886 31.886 0 0 1-13.011 2.78z" fill="#fff"/><path d="M514.798 454.842c-22.064 28.437-110.75 23.737-120.467-36.717l33.238-109.054 120.467 36.717z" fill="#ffcebd"/><path d="M468.893 474.695c-8.093 0-16.481-1.002-24.703-3.104-29.361-7.505-48.614-26.819-52.821-52.99a2.999 2.999 0 0 1 .092-1.351l33.238-109.054a3 3 0 0 1 3.744-1.995l120.467 36.717a3 3 0 0 1 1.995 3.744l-33.238 109.054a2.984 2.984 0 0 1-.5.964c-8.902 11.474-27.612 18.014-48.275 18.014zm-71.487-56.368c4.034 23.359 21.588 40.632 48.27 47.452 26.33 6.729 55.328 1.299 66.419-12.355l32.198-105.64-114.728-34.968zm117.392 36.516h.01z" fill="#0b122d"/><path d="M416.086 324.227c-14.826-31.899-21.769-68.463-19.187-108.429 7.185-111.207 164.94-199.512 254.259-105.59 65.415 68.785 65.897 210.331 28.111 274.168-35.234 59.527-114.929 69.848-176.539 33.585-19.18-11.289-36.201-24.859-50.696-40.43" fill="#ffcebd"/><path d="M578.114 442.012c-26.289 0-52.922-7.349-76.906-21.465-19.417-11.428-36.7-25.213-51.37-40.971a3 3 0 1 1 4.392-4.088c14.274 15.333 31.104 28.754 50.021 39.888 29.895 17.595 64.034 24.258 96.133 18.757 32.974-5.65 60.073-23.864 76.304-51.285 18.465-31.196 27.751-82.348 24.233-133.494-3.943-57.324-22.388-106.006-51.937-137.078-36.072-37.931-87.132-48.669-140.087-29.468-60.532 21.951-105.356 76.718-109.005 133.185-2.495 38.61 3.869 74.601 18.914 106.971a3 3 0 0 1-5.441 2.529c-15.473-33.292-22.021-70.263-19.46-109.887 3.797-58.772 50.243-115.7 112.947-138.438 25.552-9.267 51.862-11.875 76.089-7.549 26.983 4.82 50.666 17.781 70.391 38.522 30.51 32.082 49.537 82.086 53.575 140.801 3.597 52.294-6.004 104.775-25.056 136.962-17.143 28.961-45.715 48.19-80.454 54.143a137.887 137.887 0 0 1-23.283 1.965z" fill="#0b122d"/><path d="M438.162 273.024c15.324-13.214 23.178-34.19 50.542-78.113 48.58-77.98 174.17-88.811 200.352-20.662 5.363-7.166 4.935-8.78 9.039-26.042 16.546-1.532 35.582-19.19 39.18-39.18-41.179 7.996-31.206-17.98-70.972-29.307 0 0 16.293-17.154-.788-42.457-31.203 19.294-77.557-24.492-113.031 8.115-80.378-42.249-99.674 54.342-144.865 8.079-3.906 18.69 5.741 30.705 20.075 35.43 0 0-3.37 15.655-22.01 19.905-26.31 6-46.129 23.779-39.981 51.356 19.82-26.568 29.569-13.31 16.23 13.622-17.678 35.695-21.15 62.214-13.879 88.018 16.55 58.732 57.931 21.735 70.108 11.235z" fill="#5c79f7"/><path d="M397.947 297.191c-2.572 0-5.14-.341-7.677-1.103-11.357-3.411-19.804-14.678-25.104-33.487-7.668-27.213-3.326-55.02 14.079-90.163 7.019-14.172 6.481-22.497 4.657-23.616-1.341-.822-6.973 1.294-15.794 13.119a3 3 0 0 1-5.333-1.141c-3.083-13.828-.151-26.41 8.478-36.385 7.647-8.842 19.323-15.256 33.764-18.549 12.334-2.812 17.205-11.008 18.922-15.165-15.74-6.4-22.915-20.351-19.256-37.859a3.001 3.001 0 0 1 5.082-1.482c19.637 20.103 33.256 11.333 52.107-.804 21.105-13.589 47.303-30.455 90.162-8.786 20.467-17.436 44.431-11.843 65.638-6.893 17.171 4.008 33.389 7.794 46.265-.167a3.001 3.001 0 0 1 4.064.873c13.533 20.047 7.324 35.699 3.161 42.502 15.041 5.064 22.66 12.339 28.88 18.276 8.826 8.425 14.657 13.99 36.661 9.719a3 3 0 0 1 3.525 3.476c-3.54 19.664-21.75 38.403-39.689 41.356a932.06 932.06 0 0 0-1.319 5.728c-2.333 10.237-2.96 12.988-7.762 19.404a3.002 3.002 0 0 1-5.202-.722c-9.247-24.067-32.763-39.609-64.518-42.641-23.143-2.21-48.576 2.418-71.614 13.028-24.986 11.507-45.344 29.068-58.873 50.785-9.508 15.262-16.76 27.932-22.587 38.112-11.33 19.793-18.17 31.743-28.542 40.687l-.632.546c-7.809 6.747-24.709 21.349-41.542 21.349zm-14.662-154.51c1.597 0 2.838.466 3.755 1.029 6.117 3.753 5.167 16.076-2.418 31.393-16.922 34.167-21.013 59.849-13.68 85.873 4.707 16.705 11.791 26.585 21.054 29.367 15.984 4.8 35.313-11.906 43.57-19.04l.637-.55c9.594-8.272 16.24-19.885 27.252-39.124 5.852-10.224 13.135-22.947 22.702-38.304 32.162-51.627 93.121-70.721 136.15-66.613 31.808 3.037 56 17.972 67.303 41.281 1.519-2.854 2.189-5.798 3.759-12.683.5-2.19 1.083-4.751 1.807-7.796a2.997 2.997 0 0 1 2.642-2.293c15.877-1.47 30.775-17.508 35.45-32.466-21.473 3.124-28.878-3.945-37.369-12.051-6.602-6.302-14.084-13.445-30.418-18.098a3 3 0 0 1-1.353-4.951c.028-.03 3.685-4.005 5.354-10.709 2.048-8.22.376-16.849-4.968-25.682-14.464 7.334-31.602 3.334-48.206-.542-21.297-4.972-43.321-10.113-61.793 6.866a2.995 2.995 0 0 1-3.426.447c-40.86-21.477-64.824-6.046-85.968 7.568-17.621 11.347-34.325 22.105-55.317 4.034-.723 12.681 5.933 22.151 18.83 26.403a3 3 0 0 1 1.993 3.48c-.154.715-4.005 17.576-24.276 22.198-20.413 4.655-40.271 17.842-38.687 41.208 7.066-8.07 12.172-10.245 15.621-10.245z" fill="#0b122d"/><path d="M439.567 277.055c-5.374-18.589-23.253-31.443-43.28-29.787-22.84 1.889-39.825 21.936-37.936 44.776s21.936 39.825 44.776 37.936a41.305 41.305 0 0 0 21.423-8.11l-4.916 14.237" fill="#ffcebd"/><path d="M419.633 339.109a3 3 0 0 1-2.835-3.98l2.21-6.401a44.497 44.497 0 0 1-15.634 4.243c-1.24.103-2.477.153-3.699.153-22.891.001-42.394-17.62-44.314-40.832-2.022-24.453 16.227-45.991 40.679-48.013 21.034-1.747 40.556 11.694 46.409 31.944a3 3 0 0 1-5.764 1.666c-5.064-17.515-21.949-29.139-40.151-27.63-21.155 1.75-36.943 20.384-35.194 41.54 1.75 21.154 20.38 36.94 41.54 35.193a38.392 38.392 0 0 0 19.873-7.521 2.998 2.998 0 0 1 4.633 3.38l-4.917 14.237a3.002 3.002 0 0 1-2.835 2.022z" fill="#0b122d"/><path d="M542.813 258.885c12.385-4.219 24.683-5.039 39.56-5.35 9.539-.199 11.028-10.763-1.464-17.875-11.741-6.684-36.656-3.903-45.733 6.642-9.469 11.001-2.471 20.026 7.637 16.582z" fill="#5c79f7"/><path d="M538.6 262.622c-3.842 0-7.187-1.574-9.167-4.505-2.515-3.722-2.923-10.344 3.469-17.771 10.359-12.034 37.095-14.35 49.491-7.292 9.273 5.279 11.363 11.95 10.227 16.432-1.075 4.24-4.977 6.941-10.184 7.05-15.799.33-27.189 1.285-38.655 5.19-1.773.604-3.523.897-5.181.897zm4.213-3.737h.01zm21.307-23.829c-10.16 0-21.415 3.098-26.67 9.204-3.451 4.009-4.646 8.129-3.045 10.499 1.275 1.888 4.196 2.394 7.441 1.287 12.202-4.156 24.077-5.167 40.465-5.51 2.461-.051 4.1-.972 4.493-2.525.592-2.333-1.465-6.376-7.379-9.743-3.771-2.147-9.35-3.211-15.304-3.211z" fill="#0b122d"/><path d="M643.667 254.665c13.066.69 24.786 4.502 38.712 9.747 8.929 3.363 14.24-5.89 5.289-17.137-8.413-10.571-32.575-17.256-44.923-10.843-12.881 6.691-9.742 17.67.922 18.233z" fill="#5c79f7"/><path d="M685.933 268.106c-1.47 0-3.027-.291-4.61-.887-14.789-5.57-25.717-8.92-37.813-9.559-6.205-.327-10.906-3.736-11.977-8.685-.95-4.39 1.133-10.689 9.83-15.206 14.092-7.32 39.771.476 48.653 11.637 6.645 8.35 6.104 15.319 3.382 19.057-1.738 2.387-4.412 3.644-7.465 3.644zm-31.136-31.223c-4.004 0-7.716.677-10.669 2.21-4.694 2.438-7.336 5.819-6.731 8.613.481 2.226 3.005 3.781 6.429 3.962 12.872.68 24.271 4.157 39.611 9.935 2.305.869 4.167.623 5.11-.673 1.417-1.945 1.011-6.464-3.227-11.789-5.41-6.797-19.148-12.259-30.524-12.259z" fill="#0b122d"/><path d="M689.055 174.249c29.5-12.344 31.867 26.729 63.734 15.418 0 0-11.9 46.901-53.504 23.4-3.101-14.296-5.82-27.595-10.23-38.818z" fill="#5c79f7"/><g fill="#0b122d"><path d="M720.859 222.665c-7.1 0-14.811-2.332-23.049-6.985a3 3 0 0 1-1.456-1.976l-.67-3.099c-2.787-12.896-5.419-25.076-9.42-35.259a3 3 0 0 1 1.634-3.865c16.328-6.831 25.66.86 33.893 7.648 8.005 6.6 15.566 12.833 29.997 7.71a3 3 0 0 1 3.911 3.565c-.232.917-5.896 22.542-23.07 29.885-3.705 1.584-7.633 2.375-11.769 2.375zM701.93 211.1c10.825 5.837 20.346 7.078 28.313 3.684 9.756-4.158 15.271-14.41 17.838-20.685-14.1 2.853-22.551-4.11-30.107-10.34-7.355-6.064-13.781-11.36-25.052-7.747 3.58 9.974 6.038 21.347 8.626 33.326l.382 1.763z"/><ellipse cx="568.383" cy="279.843" rx="10.137" ry="8.515" transform="matrix(.05318998 -.99858441 .99858441 .05318998 258.707 832.538)"/><ellipse cx="657.533" cy="286.494" rx="10.137" ry="8.515" transform="matrix(.05318998 -.99858441 .99858441 .05318998 336.474 927.859)"/><path d="M564.759 359.07c-9.216 0-18.538-3.297-25.949-9.359-7.523-6.155-11.882-14.262-11.96-22.244a3 3 0 0 1 2.971-3.029h.03a3 3 0 0 1 3 2.971c.06 6.197 3.617 12.634 9.759 17.658 7.959 6.511 18.458 9.298 28.085 7.445a3 3 0 0 1 1.132 5.892 37.532 37.532 0 0 1-7.068.666zm-157.352-53.749a2.987 2.987 0 0 1-2.173-.932l-18.959-19.92a2.999 2.999 0 1 1 4.345-4.137l18.959 19.92a2.999 2.999 0 0 1-2.172 5.068z"/><path d="M387.678 306.952a3.001 3.001 0 0 1-2.261-4.971l20.182-23.157a3 3 0 0 1 4.524 3.942l-20.182 23.157a2.995 2.995 0 0 1-2.263 1.029z"/></g><path d="M659.142 117.292c45.524 10.682 35.699 52.432 69.892 53.784-33.818 28.245-85.058 4.841-106.381-35.513 0 0-5.693 63.977-74.951 63.203 23.56-16.609-3.264-63.517 35.361-77.834" fill="#5c79f7"/><path d="M548.928 201.771c-.419 0-.836-.002-1.26-.007a3.001 3.001 0 0 1-1.695-5.452c9.088-6.407 9.734-18.607 10.417-31.523.94-17.771 2.006-37.915 25.63-46.671a2.998 2.998 0 0 1 3.855 1.771 3 3 0 0 1-1.771 3.855c-19.925 7.385-20.798 23.889-21.723 41.362-.582 10.981-1.178 22.26-7.203 30.48 23.788-1.447 41.7-11.365 53.313-29.546 9.649-15.105 11.159-30.593 11.173-30.748a3.003 3.003 0 0 1 2.399-2.671 2.996 2.996 0 0 1 3.241 1.539c12.109 22.917 34.788 40.649 57.776 45.175 14.045 2.765 27.101.583 38.168-6.313-12.528-3.121-18.421-12.525-24.603-22.39-7.75-12.369-15.763-25.159-38.19-30.421a3 3 0 1 1 1.371-5.841c24.83 5.826 34.296 20.936 41.903 33.076 7.017 11.198 12.558 20.043 27.421 20.63a2.999 2.999 0 0 1 1.804 5.301c-13.629 11.383-30.587 15.478-49.035 11.845-22.614-4.453-44.132-19.931-57.761-41.139-1.533 6.381-4.572 15.662-10.479 24.976-9.496 14.976-28.423 32.71-64.754 32.711z" fill="#0b122d"/><path d="M539.4 147.761c-21.729 10.27-47.592 49.138-38.232 83.812 0 0-46.981-18.453-27.318-71.049" fill="#5c79f7"/><path d="M501.167 234.573c-.369 0-.741-.068-1.096-.208-.509-.2-12.575-5.03-22.244-16.677-16.27-19.6-12.671-42.476-6.787-58.215a3 3 0 1 1 5.62 2.101c-7.75 20.731-5.805 38.322 5.784 52.281 4.879 5.877 10.489 9.845 14.494 12.203-5.413-34.715 20.072-71.033 41.181-81.01a3 3 0 1 1 2.563 5.425c-10.628 5.023-21.893 17.067-29.397 31.432-8.681 16.615-11.245 33.977-7.22 48.886a3 3 0 0 1-2.897 3.782z" fill="#0b122d"/><path d="M564.57 52.537c5.904-27.284-14.576-62.883-60.733-44.456 20.205 10.449 39.389 17.409 40.632 39.147" fill="#5c79f7"/><path d="M564.573 55.537a3 3 0 0 1-2.935-3.634c3.09-14.282-1.657-29.649-11.813-38.239-6.856-5.799-18.901-11.007-38.374-5.089l.422.211c17.685 8.856 34.389 17.221 35.592 38.271a3 3 0 0 1-2.824 3.167c-1.657.107-3.072-1.17-3.167-2.824-1.005-17.583-14.811-24.496-32.289-33.249a571.333 571.333 0 0 1-6.727-3.406 3 3 0 0 1 .266-5.451c20.368-8.131 38.472-6.785 50.974 3.788 11.802 9.982 17.349 27.7 13.803 44.089a3 3 0 0 1-2.929 2.366zM419.322 231.31a42.234 42.234 0 0 0-11.915-.781v.004l-22.716.107v114.899l22.724-.004c22.271-1.699 42.526-20.77 48.118-47.394 6.581-31.327-9.632-61.249-36.211-66.832z" fill="#0b122d"/><path d="M384.691 348.538a3.004 3.004 0 0 1-3.001-3V230.639a3 3 0 0 1 2.986-3l22.555-.105a45.308 45.308 0 0 1 12.707.84c13.731 2.884 25.295 11.858 32.562 25.269 7.178 13.247 9.298 29.27 5.969 45.116-5.768 27.459-26.668 47.925-50.826 49.768a2.877 2.877 0 0 1-.228.009l-22.725.003zm22.724-3.003h.01zm-19.725-111.91v108.913l19.608-.003c21.468-1.696 40.085-20.188 45.299-45.01 3.037-14.456 1.129-29.025-5.372-41.024-6.413-11.835-16.542-19.739-28.52-22.255a39.345 39.345 0 0 0-10.92-.737 3.12 3.12 0 0 1-.364.024l-19.73.092z" fill="#0b122d"/><ellipse cx="386.46" cy="287.971" fill="#bfdbfb" rx="57.961" ry="49.177" transform="matrix(.20557225 -.97864194 .97864194 .20557225 25.196 606.98)"/><path d="M383.292 348.604c-3.125 0-6.256-.322-9.364-.975-28.156-5.914-45.441-37.488-38.531-70.384s35.436-54.851 63.594-48.933c13.731 2.884 25.295 11.858 32.562 25.269 7.177 13.247 9.297 29.271 5.969 45.116-3.329 15.846-11.716 29.662-23.617 38.901-9.321 7.236-19.93 11.007-30.613 11.007zm6.418-115.257c-22.111 0-42.883 18.67-48.441 45.131-6.229 29.658 8.975 58.045 33.893 63.279 11.98 2.517 24.431-.645 35.064-8.899 10.779-8.369 18.388-20.939 21.424-35.395 3.037-14.456 1.129-29.025-5.373-41.024-6.413-11.835-16.541-19.739-28.52-22.255a39.114 39.114 0 0 0-8.048-.837z" fill="#0b122d"/><path d="M386.484 307.973c-1.114 0-2.241-.093-3.376-.286-10.889-1.852-18.216-12.18-16.365-23.069 8.036-47.263 23.348-84.513 40.664-118.089 17.195-33.342 41.841-54.056 68.349-74.327 25.568-19.551 54.665-32.337 88.814-39.665 31.785-6.821 111.239 4.843 116.401 32.702-6.115-3.367-18.922-6.844-24.979-8.275-65.936-15.57-124.974 9.349-160.883 36.808-21.774 16.649-40.147 39.311-54.609 67.354-15.429 29.918-26.977 66.994-34.323 110.198-1.659 9.754-10.121 16.65-19.693 16.65z" fill="#bfdbfb"/><path d="M386.484 310.974c-1.294 0-2.6-.11-3.88-.329-12.501-2.126-20.944-14.027-18.818-26.53 8.892-52.295 26.558-91.045 40.955-118.961 17.635-34.194 42.792-55.147 69.193-75.335 25.568-19.551 55.01-32.706 90.007-40.215 24.408-5.238 79.866-.171 106.462 17.563 7.776 5.185 12.324 11.081 13.518 17.525a2.999 2.999 0 0 1-4.397 3.175c-5.678-3.127-17.897-6.489-24.221-7.983-29.634-6.997-59.981-6.245-90.201 2.237-30.897 8.672-54.125 23.295-68.17 34.035-21.418 16.377-39.508 38.699-53.765 66.345-15.288 29.643-26.738 66.426-34.032 109.326-1.887 11.095-11.413 19.147-22.651 19.147zM586.782 53.576c-8.198 0-15.629.616-21.583 1.894-34.112 7.32-62.773 20.115-87.622 39.116-25.836 19.756-50.441 40.23-67.505 73.318-14.199 27.532-31.619 65.735-40.373 117.217-1.571 9.241 4.668 18.038 13.91 19.609.95.162 1.916.244 2.874.244a16.945 16.945 0 0 0 16.736-14.153c7.398-43.509 19.044-80.878 34.614-111.07 14.668-28.441 33.325-51.441 55.454-68.362 14.462-11.059 38.379-26.116 70.193-35.045 31.21-8.76 62.567-9.533 93.202-2.3 1.352.319 10.61 2.545 18.443 5.398-1.86-2.514-4.549-4.949-8.05-7.284-17.769-11.848-53.198-18.582-80.292-18.582z" fill="#0b122d"/><ellipse cx="386.46" cy="287.971" fill="#bfdbfb" rx="37.93" ry="32.182" transform="matrix(.20557225 -.97864194 .97864194 .20557225 25.196 606.98)"/><path d="M384.314 328.678c-2.08 0-4.174-.212-6.268-.652-9.289-1.951-17.104-8.009-22.007-17.057-4.814-8.885-6.238-19.621-4.009-30.231s7.852-19.866 15.834-26.063c8.129-6.311 17.722-8.71 27.01-6.76 9.289 1.951 17.104 8.009 22.007 17.057 4.814 8.885 6.238 19.621 4.01 30.231-4.128 19.651-19.8 33.475-36.577 33.475zm4.242-75.42c-5.904 0-11.8 2.109-17.013 6.157-6.86 5.326-11.705 13.336-13.642 22.557-1.937 9.22-.725 18.503 3.413 26.14 4.049 7.473 10.429 12.46 17.965 14.043 15.743 3.307 31.778-9.337 35.739-28.185 1.937-9.22.725-18.503-3.413-26.14-4.049-7.473-10.429-12.46-17.965-14.043a24.7 24.7 0 0 0-5.084-.529zm29.398 41.328h.01z" fill="#0b122d"/><path d="M249.731 626.447c-36.806 51.271-33.364 100.524-33.531 159.572-.372 43.196 6.105 81.581 17.326 102.683 5.775 10.86 20.54 20.21 41.639 26.095 71.213 19.86 168.889-4.278 234.942-43.734 86.429-47.897 160.005 77.217 75.855 129.406-76.315 44.66-166.797 71.114-254.777 71.28-89.73 1.978-192.481-34.704-230.096-112.619-75.487-156.363-50.221-386.367 91.725-484.222" fill="#ffcebd"/><path d="M324.187 1074.826c-44.762 0-90.263-9.395-128.819-26.689-45.625-20.466-79.16-50.792-96.979-87.703-37.714-78.12-50.811-175.015-35.934-265.841 15.892-97.019 61.583-175.916 128.658-222.155a3 3 0 0 1 3.405 4.939C128.8 522.682 84.002 600.169 68.376 695.563c-14.683 89.637-1.774 185.228 35.416 262.262 17.197 35.621 49.712 64.957 94.031 84.836 39.774 17.841 87.114 27.117 133.297 26.087 85.564-.162 175.509-25.331 253.327-70.87 29.113-18.057 49.397-56.489 24.979-98.106-17.128-29.194-55.06-49.811-97.865-26.086-33.87 20.233-75.234 36.027-116.39 44.425-45.064 9.197-86.84 9.049-120.812-.426-21.819-6.085-37.261-15.878-43.482-27.576-11.445-21.523-18.054-60.446-17.677-104.118.014-4.863.003-9.677-.008-14.43-.121-53.149-.225-99.05 34.101-146.865a3 3 0 0 1 4.875 3.499c-33.195 46.241-33.093 91.244-32.975 143.353.011 4.764.021 9.587.008 14.478-.369 42.735 5.977 80.585 16.975 101.266 5.362 10.084 19.868 19.056 39.796 24.614 52.501 14.641 147.685 7.3 232.597-43.42 46.408-25.721 87.478-3.375 106.033 28.25 18.543 31.606 17.985 78.346-27.059 106.281-78.785 46.107-169.803 71.568-256.352 71.731-2.332.051-4.668.077-7.005.077z" fill="#0b122d"/><path d="m216.201 786.018-150.42 1.348c.171 12.089.29 19.453 1.126 28.689 48.316 11.143 97.229 4.896 149.37-17.924-.25-5.35-.23-7.129-.077-12.113z" fill="#0b122d"/><path d="M113.986 824.441c-16.095 0-31.978-1.824-47.753-5.462a3 3 0 0 1-2.313-2.653c-.865-9.551-.974-17.256-1.138-28.917a3.001 3.001 0 0 1 2.973-3.042l150.42-1.348a3 3 0 0 1 3.025 3.092c-.155 5.013-.167 6.709.075 11.881a2.999 2.999 0 0 1-1.794 2.888c-35.969 15.742-70.18 23.562-103.494 23.562zm-44.277-10.83c45.882 10.087 92.863 4.383 143.481-17.411a106.129 106.129 0 0 1-.073-7.154l-144.294 1.292c.132 9.035.275 15.716.886 23.272z" fill="#0b122d"/><path d="M195.074 437.941C57.556 487.981 6.793 678.737 3 740.82c31.867 59.808 145.676 68.912 213.201 45.198 0 0-1.713-66.907 50.73-130.484" fill="#fdf151"/><path d="M138.772 801.169c-14.476 0-29.018-1.142-43.035-3.47-46.572-7.734-80.447-27.433-95.385-55.468a2.995 2.995 0 0 1-.347-1.594c2.124-34.754 17.485-98.739 46.193-157.097 25.864-52.576 72.51-121.004 147.85-148.419a3 3 0 0 1 2.052 5.638c-73.466 26.733-119.139 93.84-144.518 145.429-28.109 57.141-43.249 119.6-45.533 153.963 14.249 25.958 46.403 44.278 90.671 51.629 38.601 6.409 82.993 3.372 116.485-7.904.094-5.383.842-20.083 5.783-39.981 5.665-22.813 18.18-56.993 45.628-90.27a3.001 3.001 0 0 1 4.629 3.819c-51.061 61.901-50.062 127.841-50.045 128.5a3.003 3.003 0 0 1-2.005 2.906c-23.097 8.111-50.637 12.32-78.423 12.32z" fill="#0b122d"/><path d="M510.108 871.062c28.511-14.735 48.874-22.797 74.721-23.609 29.265-.92 51.827 14.67 65.389 26.341 24.774 21.321-4.22 50.949-35.182 38.664-6.613-2.624-18.309-9.832-18.309-9.832-14.832 2.667-24.182 4.814-34.262 8.317" fill="#ffcebd"/><path d="M629.778 918.374c-5.027 0-10.375-.955-15.848-3.126-5.713-2.268-14.786-7.65-17.79-9.466-14.935 2.711-23.58 4.831-32.689 7.996a3.001 3.001 0 0 1-1.968-5.668c9.663-3.357 18.747-5.564 34.715-8.435a3.001 3.001 0 0 1 2.104.398c.115.071 11.55 7.102 17.841 9.598 16.829 6.678 32.08.081 37.887-9.516 4.835-7.991 2.733-16.77-5.769-24.086-20.535-17.673-41.852-26.292-63.338-25.617-25.419.799-45.421 8.797-73.438 23.276a3 3 0 1 1-2.754-5.33c28.801-14.884 49.443-23.108 76.004-23.943 23.043-.731 45.731 8.382 67.44 27.066 10.624 9.144 13.302 21.306 6.988 31.74-5.133 8.482-16.141 15.112-29.385 15.113z" fill="#0b122d"/><path d="M541.804 906.94c25.76-12.37 73.052-16.254 89.485 5.611s11.969 65.957-3.862 81.175c-27.973 26.891-50.582-12.649-35.896-33.167" fill="#ffcebd"/><path d="M608.607 1005.809c-5.031 0-9.834-1.818-14.086-5.496-10.263-8.878-15.017-28.105-5.429-41.5a3.001 3.001 0 0 1 4.879 3.493c-7.489 10.462-3.813 26.3 4.475 33.47 7.534 6.516 17.339 4.981 26.902-4.212 14.766-14.195 19.091-56.523 3.543-77.21-6.829-9.085-20.638-14.216-38.885-14.446-16.006-.201-33.975 3.529-46.903 9.737a3 3 0 0 1-2.597-5.409c13.71-6.583 32.725-10.542 49.577-10.328 20.149.254 35.635 6.235 43.605 16.841 8.034 10.689 11.957 27.121 10.763 45.081-1.142 17.186-6.729 32.162-14.944 40.059-6.844 6.579-14.081 9.92-20.9 9.92z" fill="#0b122d"/><path d="M563.343 947.816c20.05-11.698 61.975-18.88 78.298 3.068 19.533 26.266 1.566 62.162-28.197 73.551-26.969 10.321-37.128-10.651-31.922-21.398" fill="#ffcebd"/><path d="M599.809 1030.164c-5.866 0-12.163-1.641-17.086-7.004-5.504-5.997-7.109-14.81-3.902-21.43a3 3 0 0 1 5.4 2.616c-1.823 3.764-1.405 10.042 2.923 14.757 3.091 3.369 10.479 8.176 25.227 2.532 15.708-6.011 28.246-19.31 32.722-34.706 3.555-12.228 1.474-24.393-5.86-34.254-15.548-20.906-56.686-12.59-74.379-2.267a3.001 3.001 0 0 1-3.023-5.183c19.859-11.585 64.317-20.201 82.217 3.869 8.481 11.404 10.899 25.436 6.807 39.509-4.99 17.162-18.914 31.966-36.339 38.634-3.156 1.208-8.705 2.926-14.706 2.926z" fill="#0b122d"/><path d="M581.521 1003.037s16.557-8.229 25.854-21.087" fill="#fff"/><path d="M581.524 1006.038a3 3 0 0 1-1.339-5.686c.159-.079 16.021-8.073 24.76-20.159a3 3 0 0 1 4.862 3.516c-9.62 13.305-26.248 21.666-26.951 22.016a2.988 2.988 0 0 1-1.332.314z" fill="#0b122d"/><path d="M759.705 354.793c-43.835-13.979-77.651-16.168-99.649.021-17.964 13.22-16.773 53.306 2.609 54.382s29.742 1.207 46.327-6.58" fill="#ffcebd"/><path d="M677.179 412.727c-4.444 0-9.229-.233-14.68-.535-7.715-.429-13.74-6.048-16.53-15.417-4.149-13.932-.623-34.86 12.31-44.377 21.409-15.754 53.927-15.901 102.339-.463a3 3 0 1 1-1.823 5.717c-46.423-14.805-77.233-14.938-96.959-.421-8.471 6.233-14.557 22.922-10.116 37.832 1.19 3.996 4.216 10.756 11.113 11.139 19.002 1.057 28.851 1.229 44.886-6.3a2.997 2.997 0 0 1 3.99 1.44 3 3 0 0 1-1.44 3.991c-12.467 5.854-21.648 7.395-33.088 7.395z" fill="#0b122d"/><path d="M719.822 394.358c-24.719-6.195-63.642-5.876-76.231 16.201-11.19 19.625 2.602 43.088 14.198 48.289 12.298 5.515 56.957-3.897 56.957-3.897" fill="#ffcebd"/><path d="M670.495 463.571c-5.748 0-10.729-.549-13.933-1.986-7.451-3.341-14.708-12.482-18.058-22.748-3.402-10.422-2.521-20.992 2.481-29.764 13.75-24.116 55.117-23.753 79.566-17.625a3.001 3.001 0 0 1-1.459 5.821c-21.808-5.465-60.884-6.287-72.896 14.777-5.323 9.336-4.02 18.71-1.99 24.931 3.283 10.056 9.978 16.968 14.81 19.135 9.357 4.196 42.956-1.533 55.111-4.095a3 3 0 1 1 1.237 5.871c-3.502.738-27.624 5.684-44.871 5.685z" fill="#0b122d"/><path d="M720.849 440.17c-22.74-.433-61.584-1-66.255 28.877-4.729 30.254 21.617 45.723 45.404 45.348 18.068-.285 21.274-11.481 14.012-16.571" fill="#ffcebd"/><path d="M699.15 517.402c-15.302 0-30.14-6.181-38.896-16.251-7.604-8.745-10.586-20.006-8.623-32.566 5.101-32.634 46.843-31.84 69.276-31.413 1.656.032 2.974 1.4 2.942 3.057s-1.371 2.985-3.057 2.942c-28.523-.546-59.273 1-63.234 26.341-1.681 10.756.816 20.336 7.223 27.703 7.797 8.967 21.266 14.409 35.17 14.182 9.356-.147 13.659-3.403 14.501-6.146.546-1.779-.263-3.637-2.164-4.97a3 3 0 1 1 3.445-4.913c4.076 2.857 5.783 7.318 4.456 11.644-1.944 6.334-9.474 10.216-20.142 10.384-.298.005-.597.007-.896.007z" fill="#0b122d"/><path d="M723.791 501.219c-14.206-5.858-18.521-6.177-30.125-7.562" fill="#fff"/><path d="M723.79 504.22a2.98 2.98 0 0 1-1.143-.228c-13.198-5.442-17.485-5.951-27.841-7.179l-1.496-.178a3 3 0 1 1 .71-5.958l1.492.177c10.616 1.259 15.461 1.834 29.422 7.59a3 3 0 0 1-1.144 5.774zM464.267 389.65c8.419 7.316 36.254 31.212 58.722 38.321l-5.447 17.871c-26.655-12.96-42.414-27.836-53.275-56.192z" fill="#0b122d"/><path d="M517.541 448.842c-.449 0-.898-.101-1.312-.302-28.846-14.025-44.2-30.236-54.764-57.817a3.001 3.001 0 0 1 4.77-3.338c29.136 25.32 47.437 34.491 57.659 37.725a3 3 0 0 1 1.965 3.735l-5.447 17.872a2.999 2.999 0 0 1-2.869 2.125zm-45.357-48.605c9.297 18.422 22.131 30.44 43.521 41.341l3.569-11.71c-9.756-3.595-25.028-11.679-47.09-29.63z" fill="#0b122d"/></svg></g><g transform="translate(1078.3333333333335 1486.6666666666667) rotate(0.0 109.16666666666663 214.16666666666663) scale(1.7053294800697747 1.674668585041886)"><svg width="128.03" height="255.772" viewBox="0 0 128.03 255.772"><path d="m8.345 32.645 26.707-12.049 89.978 199.445-26.707 12.049z" fill="#5c79f7"/><path d="M98.325 235.091a2.998 2.998 0 0 1-2.736-1.767L5.611 33.878a2.999 2.999 0 0 1 1.5-3.968l26.707-12.048a3 3 0 0 1 3.968 1.5l89.978 199.445a2.999 2.999 0 0 1-1.5 3.968l-26.707 12.048c-.4.181-.82.267-1.232.267zM12.313 34.145l87.511 193.976 21.237-9.581-87.51-193.976-21.237 9.581z" fill="#0b122d"/><path d="M123.725 252.772 98.323 232.09l26.707-12.049z" fill="#fff"/><path d="M123.725 255.772c-.678 0-1.35-.229-1.895-.674l-25.402-20.683a3 3 0 0 1 .66-5.06l26.707-12.048a3 3 0 0 1 4.232 2.854l-1.305 32.731a3 3 0 0 1-2.997 2.881zm-19.744-22.944 16.985 13.83.873-21.886-17.857 8.056z" fill="#0b122d"/><path d="M11.63 4.299c7.369-3.325 16.052-.041 19.376 7.329l4.046 8.967L8.345 32.644 4.3 23.676C.975 16.306 4.26 7.624 11.63 4.3z" fill="#fff"/><path d="M8.345 35.644a2.995 2.995 0 0 1-2.735-1.766l-4.045-8.967a17.532 17.532 0 0 1-.42-13.502 17.537 17.537 0 0 1 9.25-9.844c8.874-4.002 19.344-.041 23.346 8.83l4.045 8.967a2.999 2.999 0 0 1-1.5 3.968L9.579 35.378a2.995 2.995 0 0 1-1.234.266zm9.303-29.646c-1.63 0-3.255.347-4.786 1.037-2.836 1.28-5.005 3.587-6.106 6.498s-1.002 6.075.277 8.912l2.812 6.233 21.237-9.581-2.812-6.232a11.576 11.576 0 0 0-6.498-6.106A11.646 11.646 0 0 0 17.646 6z" fill="#0b122d"/></svg></g><g transform="translate(1698.3333333333335 1406.6666666666667) rotate(0.0 569.1666666666667 378.33333333333337) scale(1.6688363983236383 1.6670522183911847)"><svg width="682.112" height="453.895" viewBox="0 0 682.112 453.895"><path d="m579.72 267.625.899-19.443c-.099 1.412-1.189 2.895-3.371 4.332L317.917 423.292c-9.143 6.021-27.945 9.355-41.923 7.399l-259.779-36.34c-6.989-.978-11.176-3.055-12.306-5.616L3 408.378c1.13 2.562 5.317 4.638 12.306 5.616l259.779 36.341c13.978 1.955 32.78-1.379 41.923-7.399l259.331-170.778c2.289-1.507 3.376-3.065 3.378-4.539z" fill="#5c79f7"/><path d="M283.809 453.907c-3.15 0-6.23-.194-9.139-.601L14.891 416.965c-7.936-1.11-12.997-3.661-14.636-7.377a2.992 2.992 0 0 1-.251-1.349l.909-19.643a3 3 0 0 1 5.741-1.073c.43.974 3.014 2.882 9.977 3.856l259.779 36.34c13.112 1.833 31.365-1.341 39.858-6.934l259.331-170.778c1.614-1.063 2.015-1.845 2.028-2.036a3 3 0 0 1 5.99.348l-.899 19.443-.003.06c-.063 1.788-.964 4.362-4.725 6.839L318.659 445.439c-7.913 5.211-21.95 8.465-34.849 8.466zM6.039 407.604c.906 1.031 3.653 2.575 9.683 3.418l259.779 36.341c13.112 1.836 31.364-1.341 39.857-6.934l259.331-170.778c1.681-1.107 2.027-1.889 2.028-2.037 0-.085.004-.169.012-.253l.521-11.256-257.682 169.692c-9.845 6.484-29.167 9.938-43.989 7.865l-259.78-36.339c-3.701-.518-6.776-1.349-9.17-2.465l-.59 12.747z" fill="#0b122d"/><path d="M577.248 252.514 317.917 423.292c-9.143 6.021-27.945 9.355-41.923 7.399l-259.779-36.34c-13.978-1.955-16.748-8.307-6.27-14.141l297.221-165.477c7.994-4.45 24.222-6.664 36.302-4.974l224.496 31.404c12.08 1.69 16.257 6.758 9.282 11.351z" fill="#5c79f7"/><g fill="#0b122d"><path d="M284.718 434.263c-3.15 0-6.23-.194-9.14-.601L15.799 397.323c-11.407-1.596-14.503-5.691-15.092-8.846-.506-2.71.433-6.798 7.778-10.887l297.222-165.477c8.584-4.78 25.356-7.118 38.177-5.324l224.496 31.404c8.784 1.229 14.146 4.233 15.098 8.458.392 1.741.319 5.142-4.581 8.369L319.566 425.798c-7.913 5.211-21.95 8.466-34.849 8.466zm49.913-222.079c-9.772 0-20.252 1.966-26.005 5.17L11.404 382.831c-3.727 2.075-4.921 3.888-4.799 4.544.129.693 2.249 2.917 10.025 4.004l259.779 36.34c13.113 1.835 31.365-1.341 39.858-6.934l259.331-170.778c1.681-1.107 2.027-1.888 2.028-2.037-.082-.632-2.721-2.808-10.077-3.837l-224.496-31.404c-2.647-.371-5.503-.546-8.422-.546z"/><path d="M523.072 258.867 304.731 402.652c-6.304 4.151-19.268 6.45-28.906 5.102L96.709 382.697c-9.638-1.348-11.548-5.728-4.323-9.75l244.466-140.13c5.512-3.069 16.701-4.595 25.03-3.43l154.789 21.653c8.329 1.165 11.209 4.659 6.4 7.826z"/><path d="M281.804 411.145c-2.205 0-4.36-.136-6.395-.42L96.293 385.668c-8.414-1.177-10.73-4.375-11.192-6.851-.405-2.169.277-5.403 5.826-8.492l244.434-140.111c6.104-3.398 17.922-5.058 26.937-3.798l154.79 21.653c6.562.918 10.431 3.183 11.189 6.549.323 1.435.292 4.22-3.555 6.753L306.381 405.156c-5.595 3.685-15.496 5.988-24.577 5.988zM91.086 377.749c.474.462 2.152 1.434 6.039 1.977l179.116 25.057c8.854 1.238 21.144-.884 26.84-4.636l218.341-143.785 1.65 2.505-1.65-2.505c.335-.221.565-.408.722-.554-.702-.497-2.456-1.315-5.888-1.795l-154.79-21.653c-7.634-1.067-18.238.342-23.155 3.08L93.877 375.551c-1.931 1.075-2.586 1.872-2.792 2.199z"/></g><path d="m574.571 254.277-253.184 166.73c-11.044 7.273-15.341.95-9.491-14.193l89.633-232.015c5.85-15.142 19.159-32.15 29.627-37.931L671.133 4.325c8.022-4.43 10.372 2.616 5.317 15.702L598.991 220.53c-5.055 13.086-15.958 28.175-24.421 33.748z" fill="#5c79f7"/><path d="M313.712 427.025c-2.018 0-3.479-.684-4.511-1.516-3.862-3.114-3.898-9.952-.104-19.775l89.633-232.015c6.057-15.679 19.952-33.388 30.975-39.477L669.683 1.699c5.35-2.957 8.462-1.379 9.841-.176 3.516 3.068 3.418 10.023-.275 19.584L601.79 221.61c-5.327 13.79-16.559 29.239-25.569 35.172l-253.184 166.73c-3.965 2.611-7.01 3.512-9.325 3.512zM675.3 5.998c-.41 0-1.28.159-2.717.953L432.606 139.494c-9.801 5.413-22.751 22.076-28.279 36.387l-89.633 232.015c-3.447 8.922-2.375 12.42-1.727 12.942.402.324 2.404.539 6.77-2.336l253.184-166.73c7.976-5.252 18.416-19.752 23.272-32.324l77.459-200.503c3.463-8.966 2.381-12.505 1.928-12.901-.023-.02-.114-.046-.279-.046z" fill="#0b122d"/></svg></g><g transform="translate(1003.3333333333334 1603.3333333333335) rotate(0.0 130.83333333333331 155.0) scale(1.6510917186707974 1.669763809216019)"><svg width="158.481" height="185.655" viewBox="0 0 158.481 185.655"><defs><style>.cls-1,.cls-2{fill:#ffcebd;stroke-width:0}.cls-2{fill:#0b122d}</style></defs><path class="cls-1" d="M3 27.569C31.511 12.835 54.912 3.851 80.759 3.039c29.265-.92 51.827 14.67 65.389 26.341 24.774 21.321-4.22 50.949-35.182 38.664-6.613-2.624-18.309-9.832-18.309-9.832-14.832 2.667-24.182 4.814-34.262 8.317"/><path class="cls-2" d="M125.709 73.959c-5.027 0-10.375-.955-15.849-3.127-5.713-2.267-14.786-7.648-17.79-9.465-14.938 2.712-23.583 4.831-32.69 7.995a3 3 0 0 1-1.968-5.668c9.66-3.355 18.745-5.563 34.716-8.436a3.012 3.012 0 0 1 2.104.399c.115.07 11.55 7.101 17.841 9.598 16.828 6.675 32.08.08 37.886-9.516 4.835-7.991 2.733-16.771-5.768-24.087C123.657 13.98 102.35 5.355 80.854 6.037 54.65 6.86 31.33 16.306 4.377 30.234a3 3 0 1 1-2.754-5.33C29.3 10.601 53.334.899 80.665.041c23.043-.734 45.731 8.382 67.44 27.065 10.625 9.144 13.302 21.306 6.987 31.74-5.132 8.481-16.14 15.112-29.384 15.112Z"/><path class="cls-1" d="M37.735 62.526c25.76-12.37 73.052-16.254 89.485 5.611 16.433 21.865 11.969 65.957-3.862 81.175-27.973 26.891-50.582-12.649-35.896-33.167"/><path class="cls-2" d="M104.537 161.395c-5.031 0-9.834-1.818-14.086-5.496-10.263-8.878-15.016-28.104-5.428-41.5a3.001 3.001 0 0 1 4.879 3.493c-7.489 10.463-3.814 26.3 4.475 33.47 7.533 6.518 17.339 4.981 26.902-4.212 14.766-14.194 19.091-56.522 3.543-77.209-6.829-9.086-20.638-14.216-38.885-14.446-16.003-.214-33.975 3.529-46.904 9.736a3 3 0 0 1-2.597-5.408c13.71-6.582 32.696-10.511 49.576-10.328 20.148.255 35.635 6.235 43.605 16.841 8.034 10.689 11.957 27.121 10.763 45.081-1.142 17.187-6.729 32.161-14.944 40.06-6.844 6.579-14.081 9.92-20.9 9.92Z"/><path class="cls-1" d="M59.273 103.402c20.05-11.698 61.975-18.88 78.298 3.068 19.533 26.266 1.566 62.162-28.197 73.551-26.969 10.321-35.726-12.299-30.52-23.045"/><path class="cls-2" d="M96.638 185.671c-8.533 0-13.71-3.863-16.419-6.814-5.708-6.22-7.456-16.188-4.065-23.188a3 3 0 1 1 5.4 2.615c-2.05 4.232-1.456 11.567 3.085 16.516 5.028 5.477 13.431 6.336 23.663 2.421 15.708-6.011 28.246-19.31 32.722-34.706 3.555-12.228 1.474-24.393-5.86-34.254-15.549-20.907-56.687-12.589-74.379-2.267a3 3 0 1 1-3.023-5.182c19.859-11.587 64.315-20.203 82.217 3.868 8.481 11.404 10.899 25.436 6.807 39.51-4.99 17.162-18.914 31.966-36.339 38.634-5.352 2.048-9.927 2.848-13.808 2.848Z"/><path d="M78.854 156.976s14.096-8.777 24.452-19.44" style="fill:#fff;stroke-width:0"/><path class="cls-2" d="M78.857 159.976a3.002 3.002 0 0 1-1.589-5.547c.138-.086 13.917-8.719 23.886-18.982a3 3 0 0 1 4.304 4.18c-10.491 10.802-24.43 19.53-25.019 19.896a2.985 2.985 0 0 1-1.583.453Z"/></svg></g><g transform="translate(1923.3333333333335 1343.3333333333335) rotate(0.0 151.66666666666674 194.16666666666663) scale(1.672538932479053 1.6726177400852529)"><svg width="181.361" height="232.171" viewBox="0 0 181.361 232.171"><path d="m10.284 38.56 19.785 176.006c0 8.066 27.137 14.605 60.612 14.605s60.612-6.539 60.612-14.605L171.078 38.56z" fill="#ee83f9"/><path d="M90.681 232.171c-16.419 0-31.89-1.549-43.562-4.361-13.151-3.169-19.894-7.559-20.047-13.052L7.302 38.894a3 3 0 0 1 2.982-3.334h160.794a3.002 3.002 0 0 1 2.982 3.334l-19.769 175.863c-.153 5.493-6.896 9.883-20.047 13.052-11.671 2.812-27.142 4.361-43.562 4.361zM13.639 41.559 33.05 214.23c.012.111.019.223.019.335 0 3.196 17.715 11.605 57.611 11.605s57.612-8.409 57.612-11.605c0-.112.006-.224.019-.335l19.411-172.671z" fill="#0b122d"/><path d="M90.681 113.538c-39.573 0-71.896-7.476-73.981-16.887l8.928 77.372c0 8.657 29.125 15.675 65.052 15.675s65.052-7.018 65.052-15.675l8.928-77.373c-2.084 9.411-34.407 16.887-73.981 16.887z" fill="#bfdbfb"/><path d="M90.681 192.699c-17.606 0-34.191-1.66-46.702-4.675-14.01-3.375-21.19-8.02-21.348-13.805L13.72 96.995a2.999 2.999 0 0 1 5.909-.992c1.316 5.941 27.375 14.536 71.051 14.536s69.737-8.595 71.052-14.536a2.999 2.999 0 0 1 5.909.992l-8.911 77.224c-.158 5.786-7.338 10.43-21.348 13.805-12.51 3.015-29.096 4.675-46.702 4.675zm-69.986-87.601 7.914 68.581c.013.114.02.229.02.344 0 4.302 21.902 12.675 62.052 12.675s62.053-8.373 62.053-12.675c0-.115.007-.23.02-.344l7.914-68.581c-4.226 2.473-10.326 4.629-18.267 6.449-14.041 3.218-32.409 4.99-51.72 4.99s-37.678-1.772-51.719-4.99c-7.941-1.82-14.041-3.976-18.267-6.449z" fill="#0b122d"/><ellipse cx="90.681" cy="38.56" fill="#ee83f9" rx="80.397" ry="19.373"/><path d="M90.681 60.932c-41.443 0-83.397-7.685-83.397-22.373s41.954-22.373 83.397-22.373 83.397 7.685 83.397 22.373-41.954 22.373-83.397 22.373zm0-38.745c-21.245 0-41.185 1.985-56.146 5.591-16.775 4.042-21.25 8.679-21.25 10.782s4.476 6.74 21.25 10.782c14.961 3.605 34.901 5.591 56.146 5.591s41.185-1.985 56.146-5.591c16.775-4.042 21.25-8.679 21.25-10.782s-4.476-6.74-21.25-10.782c-14.961-3.605-34.901-5.591-56.146-5.591z" fill="#0b122d"/><path d="m177.548 43.362-6.47-20.989H10.284l-6.47 20.989c-.533.864-.814 1.745-.814 2.64 0 10.699 39.256 19.373 87.681 19.373s87.681-8.674 87.681-19.373c0-.896-.281-1.776-.814-2.64z" fill="#bfdbfb"/><path d="M90.681 68.375C54.23 68.375 0 62.417 0 46.002c0-1.314.353-2.609 1.049-3.855l6.368-20.658a3 3 0 0 1 2.867-2.116h160.794a3 3 0 0 1 2.867 2.116l6.368 20.658c.696 1.247 1.049 2.542 1.049 3.855 0 16.415-54.23 22.373-90.681 22.373zM12.498 25.373 6.681 44.246a3.01 3.01 0 0 1-.313.691c-.247.401-.367.75-.367 1.065 0 5.714 29.083 16.373 84.681 16.373s84.681-10.659 84.681-16.373c0-.316-.12-.665-.368-1.066a2.977 2.977 0 0 1-.312-.69l-5.818-18.873z" fill="#0b122d"/><ellipse cx="90.681" cy="22.373" fill="#bfdbfb" rx="80.397" ry="19.373"/><path d="M90.681 44.745c-41.443 0-83.397-7.685-83.397-22.373S49.238 0 90.681 0s83.397 7.685 83.397 22.373-41.954 22.373-83.397 22.373zm0-38.745c-21.245 0-41.185 1.985-56.146 5.591-16.775 4.042-21.25 8.679-21.25 10.782s4.476 6.74 21.25 10.782c14.961 3.605 34.901 5.591 56.146 5.591s41.185-1.985 56.146-5.591c16.775-4.042 21.25-8.679 21.25-10.782s-4.476-6.74-21.25-10.782C131.865 7.986 111.925 6 90.681 6z" fill="#0b122d"/></svg></g></svg>